<mxfile host="www.draw.io" modified="2019-11-08T15:48:22.628Z" agent="Mozilla/5.0 (Windows NT 10.0; Win64; x64) AppleWebKit/537.36 (KHTML, like Gecko) Chrome/78.0.3904.87 Safari/537.36" etag="MwrKL4ohKpDM6PsuJjff" version="12.2.3" type="github" pages="1">
  <diagram id="_Y_Ghutb2y4u3eCPrAWP" name="Page-1">
    <mxGraphModel dx="3193" dy="2701" grid="1" gridSize="10" guides="1" tooltips="1" connect="1" arrows="1" fold="1" page="1" pageScale="1" pageWidth="827" pageHeight="1169" math="0" shadow="0">
      <root>
        <mxCell id="0"/>
        <mxCell id="1" parent="0"/>
        <mxCell id="5S6gnpby86TTOAzf-ZQi-1" value="Start" style="ellipse;whiteSpace=wrap;html=1;" vertex="1" parent="1">
          <mxGeometry x="-2370" y="-2270" width="120" height="80" as="geometry"/>
        </mxCell>
        <mxCell id="5S6gnpby86TTOAzf-ZQi-2" value="Start" style="ellipse;whiteSpace=wrap;html=1;" vertex="1" parent="1">
          <mxGeometry x="-2370" y="-2270" width="120" height="80" as="geometry"/>
        </mxCell>
        <mxCell id="5S6gnpby86TTOAzf-ZQi-3" value="" style="endArrow=classic;html=1;exitX=0.5;exitY=1;exitDx=0;exitDy=0;" edge="1" parent="1" source="5S6gnpby86TTOAzf-ZQi-2">
          <mxGeometry width="50" height="50" relative="1" as="geometry">
            <mxPoint x="-2310" y="-2080" as="sourcePoint"/>
            <mxPoint x="-2310" y="-2140" as="targetPoint"/>
          </mxGeometry>
        </mxCell>
        <mxCell id="5S6gnpby86TTOAzf-ZQi-4" value="Get file of coordinates" style="rounded=0;whiteSpace=wrap;html=1;" vertex="1" parent="1">
          <mxGeometry x="-2370" y="-2140" width="120" height="60" as="geometry"/>
        </mxCell>
        <mxCell id="5S6gnpby86TTOAzf-ZQi-7" value="Wait for button press and release" style="rounded=0;whiteSpace=wrap;html=1;" vertex="1" parent="1">
          <mxGeometry x="-2370" y="-2040" width="120" height="60" as="geometry"/>
        </mxCell>
        <mxCell id="5S6gnpby86TTOAzf-ZQi-8" value="" style="endArrow=classic;html=1;" edge="1" parent="1">
          <mxGeometry width="50" height="50" relative="1" as="geometry">
            <mxPoint x="-2310" y="-2078" as="sourcePoint"/>
            <mxPoint x="-2310" y="-2040" as="targetPoint"/>
          </mxGeometry>
        </mxCell>
        <mxCell id="5S6gnpby86TTOAzf-ZQi-11" value="" style="endArrow=classic;html=1;exitX=1;exitY=0.5;exitDx=0;exitDy=0;" edge="1" parent="1" source="5S6gnpby86TTOAzf-ZQi-7">
          <mxGeometry width="50" height="50" relative="1" as="geometry">
            <mxPoint x="-2240" y="-1980" as="sourcePoint"/>
            <mxPoint x="-2200" y="-2010" as="targetPoint"/>
          </mxGeometry>
        </mxCell>
        <mxCell id="5S6gnpby86TTOAzf-ZQi-12" value="Scale x and y coordinate as&lt;br&gt;&amp;nbsp;needed&amp;nbsp;" style="rounded=0;whiteSpace=wrap;html=1;" vertex="1" parent="1">
          <mxGeometry x="-2200" y="-2040" width="130" height="60" as="geometry"/>
        </mxCell>
        <mxCell id="5S6gnpby86TTOAzf-ZQi-15" value="" style="endArrow=none;html=1;" edge="1" parent="1">
          <mxGeometry width="50" height="50" relative="1" as="geometry">
            <mxPoint x="-2190" y="-1980" as="sourcePoint"/>
            <mxPoint x="-2190" y="-2040" as="targetPoint"/>
          </mxGeometry>
        </mxCell>
        <mxCell id="5S6gnpby86TTOAzf-ZQi-16" value="" style="endArrow=none;html=1;" edge="1" parent="1">
          <mxGeometry width="50" height="50" relative="1" as="geometry">
            <mxPoint x="-2080" y="-1980" as="sourcePoint"/>
            <mxPoint x="-2080" y="-2040" as="targetPoint"/>
          </mxGeometry>
        </mxCell>
        <mxCell id="5S6gnpby86TTOAzf-ZQi-17" value="Coordinates printed &amp;lt; 20" style="rhombus;whiteSpace=wrap;html=1;" vertex="1" parent="1">
          <mxGeometry x="-2030" y="-2070" width="150" height="120" as="geometry"/>
        </mxCell>
        <mxCell id="5S6gnpby86TTOAzf-ZQi-18" value="" style="endArrow=classic;html=1;exitX=1;exitY=0.5;exitDx=0;exitDy=0;entryX=0;entryY=0.5;entryDx=0;entryDy=0;" edge="1" parent="1" source="5S6gnpby86TTOAzf-ZQi-12" target="5S6gnpby86TTOAzf-ZQi-17">
          <mxGeometry width="50" height="50" relative="1" as="geometry">
            <mxPoint x="-2080" y="-1990" as="sourcePoint"/>
            <mxPoint x="-2030" y="-2040" as="targetPoint"/>
          </mxGeometry>
        </mxCell>
        <mxCell id="5S6gnpby86TTOAzf-ZQi-21" value="" style="endArrow=classic;html=1;exitX=0.5;exitY=1;exitDx=0;exitDy=0;" edge="1" parent="1" source="5S6gnpby86TTOAzf-ZQi-17">
          <mxGeometry width="50" height="50" relative="1" as="geometry">
            <mxPoint x="-1970" y="-1900" as="sourcePoint"/>
            <mxPoint x="-1955" y="-1900" as="targetPoint"/>
          </mxGeometry>
        </mxCell>
        <mxCell id="5S6gnpby86TTOAzf-ZQi-23" value="" style="endArrow=classic;html=1;exitX=0.5;exitY=0;exitDx=0;exitDy=0;" edge="1" parent="1" source="5S6gnpby86TTOAzf-ZQi-17">
          <mxGeometry width="50" height="50" relative="1" as="geometry">
            <mxPoint x="-1980" y="-2070" as="sourcePoint"/>
            <mxPoint x="-1955" y="-2130" as="targetPoint"/>
          </mxGeometry>
        </mxCell>
        <mxCell id="5S6gnpby86TTOAzf-ZQi-24" value="Display message" style="rounded=0;whiteSpace=wrap;html=1;" vertex="1" parent="1">
          <mxGeometry x="-2010" y="-1900" width="120" height="60" as="geometry"/>
        </mxCell>
        <mxCell id="5S6gnpby86TTOAzf-ZQi-25" value="" style="endArrow=classic;html=1;exitX=0.5;exitY=1;exitDx=0;exitDy=0;" edge="1" parent="1" source="5S6gnpby86TTOAzf-ZQi-24">
          <mxGeometry width="50" height="50" relative="1" as="geometry">
            <mxPoint x="-1970" y="-1780" as="sourcePoint"/>
            <mxPoint x="-1950" y="-1800" as="targetPoint"/>
          </mxGeometry>
        </mxCell>
        <mxCell id="5S6gnpby86TTOAzf-ZQi-26" value="End" style="ellipse;whiteSpace=wrap;html=1;" vertex="1" parent="1">
          <mxGeometry x="-2010" y="-1800" width="120" height="80" as="geometry"/>
        </mxCell>
        <mxCell id="5S6gnpby86TTOAzf-ZQi-27" value="False" style="text;html=1;resizable=0;points=[];autosize=1;align=left;verticalAlign=top;spacingTop=-4;" vertex="1" parent="1">
          <mxGeometry x="-1950" y="-1940" width="40" height="20" as="geometry"/>
        </mxCell>
        <mxCell id="5S6gnpby86TTOAzf-ZQi-30" value="Calculate distance&lt;br&gt;and angle to next coordinate&amp;nbsp;" style="rounded=0;whiteSpace=wrap;html=1;" vertex="1" parent="1">
          <mxGeometry x="-2020" y="-2190" width="130" height="60" as="geometry"/>
        </mxCell>
        <mxCell id="5S6gnpby86TTOAzf-ZQi-31" value="" style="endArrow=none;html=1;" edge="1" parent="1">
          <mxGeometry width="50" height="50" relative="1" as="geometry">
            <mxPoint x="-2010" y="-2130" as="sourcePoint"/>
            <mxPoint x="-2010" y="-2190" as="targetPoint"/>
          </mxGeometry>
        </mxCell>
        <mxCell id="5S6gnpby86TTOAzf-ZQi-32" value="" style="endArrow=none;html=1;" edge="1" parent="1">
          <mxGeometry width="50" height="50" relative="1" as="geometry">
            <mxPoint x="-1900" y="-2130" as="sourcePoint"/>
            <mxPoint x="-1900" y="-2190" as="targetPoint"/>
          </mxGeometry>
        </mxCell>
        <mxCell id="5S6gnpby86TTOAzf-ZQi-33" value="Drive to next coordinate using motor encoder for each motor" style="shape=process;whiteSpace=wrap;html=1;backgroundOutline=1;" vertex="1" parent="1">
          <mxGeometry x="-2020" y="-2310" width="130" height="70" as="geometry"/>
        </mxCell>
        <mxCell id="5S6gnpby86TTOAzf-ZQi-34" value="" style="endArrow=classic;html=1;entryX=0.5;entryY=1;entryDx=0;entryDy=0;exitX=0.5;exitY=0;exitDx=0;exitDy=0;" edge="1" parent="1" source="5S6gnpby86TTOAzf-ZQi-30" target="5S6gnpby86TTOAzf-ZQi-33">
          <mxGeometry width="50" height="50" relative="1" as="geometry">
            <mxPoint x="-1955" y="-2200" as="sourcePoint"/>
            <mxPoint x="-1930" y="-2230" as="targetPoint"/>
          </mxGeometry>
        </mxCell>
        <mxCell id="5S6gnpby86TTOAzf-ZQi-39" value="" style="endArrow=classic;html=1;entryX=1;entryY=0.5;entryDx=0;entryDy=0;exitX=1;exitY=0.5;exitDx=0;exitDy=0;" edge="1" parent="1" source="5S6gnpby86TTOAzf-ZQi-33" target="5S6gnpby86TTOAzf-ZQi-17">
          <mxGeometry width="50" height="50" relative="1" as="geometry">
            <mxPoint x="-1780" y="-2280" as="sourcePoint"/>
            <mxPoint x="-1820" y="-2020" as="targetPoint"/>
            <Array as="points">
              <mxPoint x="-1790" y="-2275"/>
              <mxPoint x="-1790" y="-2010"/>
            </Array>
          </mxGeometry>
        </mxCell>
      </root>
    </mxGraphModel>
  </diagram>
</mxfile>
